# xmcd
#
# Track frame offsets:
#	150
#	11515
#	20897
#	33376
#	46671
#	58171
#	69378
#	81409
#	94600
#	106464
#	115447
#	124215
#	135284
#	144415
#	156753
#	168535
#	181038
#	191810
#	202349
#	216551
#	227109
#	237757
#	249448
#	263744
#	270859
#
# Disc length: 3691 seconds
#
# Revision: 0
# Processed by: cddbd v1.5.2PL0 Copyright (c) Steve Scherf et al.
# Submitted via: EasyCDDAExtractor 2010.6.0.0
#
DISCID=660e6919
DTITLE=Various Artist - River Of No Return
DYEAR=1900
DGENRE=
TTITLE0=Williams Tex - River Of No Return (Decca 29133)
TTITLE1=Williams Tex - Between You And The Birds And The Bees And Cupid (Decca
TTITLE1=unk.)
TTITLE2=Williams Tex - Cool Water (Capitol G 131-5)
TTITLE3=Williams Tex and Roberta Lee - Don't Call My Name (Decca 28721)
TTITLE4=Williams Tex - Down In The Meadow (Decca 29133)
TTITLE5=Williams Tex - Dusty Skies (Capitol G132-4)
TTITLE6=Williams Tex and Rex Allen - This Ole House (Decca 29254)
TTITLE7=Williams Tex - They Were Doing The Mambo (Decca 29202)
TTITLE8=Williams Tex and Rex Allen - Two Texas Boys (Decca 29254)
TTITLE9=Williams Tex - My Adobe Hacienda (Capitol G131-4)
TTITLE10=Williams Tex - My Confession (Capitol G132-1)
TTITLE11=Williams Tex - Kansas City Rag (Transcription)
TTITLE12=Williams Tex - Ten Silver Dollars (Transcription)
TTITLE13=Williams Tex - Air Mail Special (Decca 29385)
TTITLE14=Williams Tex - Money (Decca 29077)
TTITLE15=Williams Tex - If You'd Believe In Me (Decca 29077)
TTITLE16=Williams Tex - Perdido (Lost) (Decca unk)
TTITLE17=Williams Tex - Shrimp Boats (RCA 20-4409)
TTITLE18=Williams Tex - Deck Of Cards (Decca 28809)
TTITLE19=Williams Tex - Take The A Train (Decca unk)
TTITLE20=Williams Tex - Sinful (RCA 20-4409)
TTITLE21=Williams Tex - Stars And Stripes On Iwo Jima (Transcription)
TTITLE22=Williams Tex - I Cried Myself To Sleep (Transcription)
TTITLE23=Williams Tex - Rocky Mountain Express (Navy Country Time Transcriptio
TTITLE23=n #5)
TTITLE24=Williams Tex - Twelfth Street Rag (Capitol G140-6)
EXTD=
EXTT0=
EXTT1=
EXTT2=
EXTT3=
EXTT4=
EXTT5=
EXTT6=
EXTT7=
EXTT8=
EXTT9=
EXTT10=
EXTT11=
EXTT12=
EXTT13=
EXTT14=
EXTT15=
EXTT16=
EXTT17=
EXTT18=
EXTT19=
EXTT20=
EXTT21=
EXTT22=
EXTT23=
EXTT24=
PLAYORDER=
